<?xml version="1.0" encoding="utf-8"?>
<!-- Generator: Adobe Illustrator 15.0.0, SVG Export Plug-In . SVG Version: 6.00 Build 0)  -->
<!DOCTYPE svg PUBLIC "-//W3C//DTD SVG 1.1//EN" "http://www.w3.org/Graphics/SVG/1.1/DTD/svg11.dtd">
<svg version="1.1" id="レイヤー_1" xmlns="http://www.w3.org/2000/svg" xmlns:xlink="http://www.w3.org/1999/xlink" x="0px"
	 y="0px" width="244.587px" height="38.218px" viewBox="0 0 244.587 38.218" enable-background="new 0 0 244.587 38.218"
	 xml:space="preserve">
<g>
	<g>
		<rect x="89.937" y="9.163" fill="#3E3A39" width="28.063" height="1.741"/>
		<rect x="89.066" y="15.58" fill="#3E3A39" width="30.237" height="1.74"/>
		<rect x="91.323" y="24.281" fill="#3E3A39" width="22.885" height="1.74"/>
		<rect x="101.182" y="4.975" fill="#3E3A39" width="5.367" height="5.058"/>
		<path fill="#3E3A39" d="M111.34,24.281l-3.59,9.137h-3.85v1.741h5.243c0,0,3.606,0,4.371-2.72l3.01-8.158H111.34z"/>
		<path fill="#3E3A39" d="M97.534,25.587l-3.847,7.83h-3.851v1.741h5.243c0,0,3.585,0,4.372-2.72l3.436-6.852H97.534z"/>
		<path fill="#3E3A39" d="M112.604,10.903l1.236-3.916h2.109V5.247h-2.632c0,0-3.585,0-4.372,2.719l-0.825,2.937H112.604z"/>
		<path fill="#3E3A39" d="M95.262,10.903l-1.237-3.916h-2.109V5.247h2.632c0,0,3.585,0,4.372,2.719l0.825,2.937H95.262z"/>
		<path fill="#3E3A39" d="M100.96,9.489l-9.504,11.747H88.91v1.74h5.243c0,0,2.145,0.012,3.64-1.865l9.39-11.622H100.96z"/>
		<path fill="#3E3A39" d="M107.382,9.489l9.504,11.747h2.545v1.74h-5.242c0,0-2.145,0.012-3.641-1.865l-9.389-11.622H107.382z"/>
	</g>
	<g>
		<rect x="57.24" y="17.429" fill="#3E3A39" width="21.536" height="1.741"/>
		<rect x="54.63" y="23.412" fill="#3E3A39" width="26.757" height="1.74"/>
		<rect x="52.89" y="33.417" fill="#3E3A39" width="30.238" height="1.741"/>
		<rect x="65.36" y="18.299" fill="#3E3A39" width="5.367" height="15.99"/>
		<path fill="#3E3A39" d="M76.679,34.125l1.238-3.916h2.109v-1.739h-2.633c0,0-3.584,0-4.371,2.72l-0.826,2.936H76.679z"/>
		<path fill="#3E3A39" d="M59.337,34.125l-1.236-3.916h-2.11v-1.739h2.632c0,0,3.586,0,4.373,2.72l0.824,2.936H59.337z"/>
		<path fill="#3E3A39" d="M64.921,4.802l-7.764,9.571h-4.285v1.74h6.982c0,0,2.145,0.011,3.64-1.866l7.649-9.445H64.921z"/>
		<path fill="#3E3A39" d="M71.169,4.802l7.763,9.571h4.284v1.74h-6.982c0,0-2.145,0.011-3.639-1.866l-7.649-9.445H71.169z"/>
	</g>
	<g>
		<rect x="162.027" y="5.03" fill="#3E3A39" width="14.466" height="1.74"/>
		<rect x="177.064" y="7.422" fill="#3E3A39" width="15.337" height="1.74"/>
		<rect x="163.769" y="13.404" fill="#3E3A39" width="10.114" height="1.741"/>
		<rect x="163.769" y="21.78" fill="#3E3A39" width="10.114" height="1.74"/>
		<rect x="162.462" y="30.046" fill="#3E3A39" width="11.421" height="1.74"/>
		<rect x="163.507" y="6.334" fill="#3E3A39" width="3.66" height="23.93"/>
		<rect x="171.229" y="6.334" fill="#3E3A39" width="3.66" height="28.824"/>
		<path fill="#3E3A39" d="M187.872,9.163l-9.492,24.255h-2.545v1.741h3.067c0,0,3.394,0.435,4.372-2.72l9.08-23.276H187.872z"/>
		<path fill="#3E3A39" d="M183.03,12.643l7.752,20.774h2.545v1.741h-3.066c0,0-3.394,0.435-4.373-2.72l-7.34-19.796H183.03z"/>
	</g>
	<path fill="#F4C51E" d="M231.831,33.292c-1.299,1.877-3.163,1.866-3.163,1.866h-6.067v-1.741h3.724l9.033-12.709
		c1.3-1.876,3.163-1.865,3.163-1.865h6.066v1.74h-3.723L231.831,33.292z"/>
	<path fill="#F4C51E" d="M235.357,33.292c1.3,1.877,3.163,1.866,3.163,1.866h6.066v-1.741h-3.723l-9.033-12.709
		c-1.299-1.876-3.163-1.865-3.163-1.865h-6.067v1.74h3.724L235.357,33.292z"/>
	<g>
		<rect x="126.38" y="5.03" fill="#3E3A39" width="28.934" height="1.74"/>
		<rect x="126.38" y="10.468" fill="#3E3A39" width="28.934" height="1.74"/>
		<rect x="127.251" y="14.71" fill="#3E3A39" width="26.756" height="1.74"/>
		<rect x="127.251" y="19.169" fill="#3E3A39" width="26.756" height="1.74"/>
		<rect x="127.251" y="23.846" fill="#3E3A39" width="26.756" height="1.741"/>
		<rect x="127.251" y="28.306" fill="#3E3A39" width="26.756" height="1.74"/>
		<rect x="125.438" y="5.03" fill="#3E3A39" width="3.659" height="7.178"/>
		<rect x="151.653" y="5.03" fill="#3E3A39" width="3.66" height="7.178"/>
		<rect x="127.179" y="16.124" fill="#3E3A39" width="3.66" height="13.271"/>
		<rect x="150.347" y="16.124" fill="#3E3A39" width="3.66" height="13.271"/>
		<rect x="143.078" y="5.03" fill="#3E3A39" width="3.66" height="7.178"/>
		<rect x="134.229" y="5.03" fill="#3E3A39" width="3.659" height="7.178"/>
		<path fill="#3E3A39" d="M132.466,29.611l-3.088,3.807h-4.284v1.741h6.982c0,0,2.144,0.011,3.64-1.866l2.98-3.682H132.466z"/>
		<path fill="#3E3A39" d="M151.935,33.417l-3.088-3.807h-6.23l2.98,3.682c1.496,1.877,3.64,1.866,3.64,1.866h6.982v-1.741H151.935z"
			/>
	</g>
	<path fill="#F4C51E" d="M210.749,20.583v-1.74h-6.066c0,0-1.863-0.011-3.163,1.865l-1.763,2.482v-0.002L197.048,27l2.709,3.81
		l1.763,2.482c1.3,1.877,3.163,1.866,3.163,1.866h6.066v-1.741h-3.723L202.464,27l4.563-6.417H210.749z"/>
	<rect x="199.563" y="26.13" fill="#F4C51E" width="19.796" height="1.74"/>
	<g>
		<path fill="#F4C51E" d="M216.073,27l-0.619,0.87h5.417l0.618-0.87l-2.708-3.812v0.002l-1.763-2.482
			c-1.299-1.876-3.162-1.865-3.162-1.865h-6.068v1.74h3.724L216.073,27z"/>
		<path fill="#F4C51E" d="M213.619,30.455l-2.107,2.963h-3.724v1.741h6.068c0,0,1.863,0.011,3.162-1.866l1.763-2.482l0.254-0.355
			H213.619z"/>
	</g>
	<path fill="#F4C51E" d="M18.796,10.036v1.853c4.999-6.334,10.912-9.667,14.171-7.611c2.408,1.519,2.784,5.618,1.38,10.577
		l-1.299-0.883v13.63l8.992-7.517l-2.494-1.695c2.813-7.91,2.402-14.906-1.605-17.433C33.307-1.965,25.356,2.021,18.796,10.036z"/>
	<path fill="#F4C51E" d="M31.613,28.183V26.33c-4.999,6.334-10.913,9.666-14.171,7.611c-2.408-1.519-2.785-5.618-1.379-10.576
		l1.297,0.882V10.616l-8.991,7.518l2.494,1.696c-2.813,7.911-2.402,14.905,1.605,17.432C17.103,40.183,25.053,36.198,31.613,28.183z
		"/>
	<path fill="#F4C51E" d="M16.062,2.108c0,0,0,2.999-2.997,2.999c0,0,2.997,0,2.997,2.998c0,0,0-2.998,2.999-2.998
		C19.061,5.107,16.062,5.107,16.062,2.108z"/>
	<path fill="#F4C51E" d="M36.881,29.128c0,0,0,3.991-3.991,3.991c0,0,3.991,0,3.991,3.99c0,0,0-3.99,3.99-3.99
		C40.871,33.12,36.881,33.12,36.881,29.128z"/>
	<path fill="#F4C51E" d="M5.772,1.674c0,0,0,5.772-5.772,5.772c0,0,5.772,0,5.772,5.771c0,0,0-5.771,5.771-5.771
		C11.543,7.446,5.772,7.446,5.772,1.674z"/>
</g>
</svg>
